<svg width="23" height="24" viewBox="0 0 23 24" fill="none" xmlns="http://www.w3.org/2000/svg">
<path d="M22.8457 3.49645C22.8457 2.31115 21.6215 1.42897 19.1031 0.799354C17.0412 0.283881 14.3137 0 11.4229 0C8.53226 0 5.80464 0.283881 3.74274 0.799354C1.22427 1.42897 0 2.31115 0 3.49645C0 3.93503 0.168141 4.33203 0.50693 4.69018L8.28119 14.1199V23.1455C8.28119 23.4411 8.43395 23.7157 8.68514 23.8715C8.82263 23.9568 8.97882 23.9999 9.13556 23.9999C9.2652 23.9999 9.39507 23.9704 9.51502 23.911L14.0802 21.6483C14.3707 21.5043 14.5547 21.2082 14.5552 20.8839L14.5639 14.1204L22.3392 4.68961C22.6778 4.33157 22.8457 3.93492 22.8457 3.49645ZM4.54232 2.36571C6.42503 1.94205 8.86854 1.70875 11.4229 1.70875C13.9773 1.70875 16.4209 1.94205 18.3034 2.36571C20.3824 2.83357 20.9667 3.3364 21.1065 3.49645C20.9666 3.6565 20.3824 4.15933 18.3034 4.62719C16.4209 5.05085 13.9771 5.28415 11.4229 5.28415C8.86866 5.28415 6.42503 5.05084 4.54232 4.6273C2.46345 4.15945 1.87895 3.65662 1.73917 3.49656C1.87895 3.3364 2.46345 2.83357 4.54232 2.36571ZM13.0509 13.2697C12.925 13.4225 12.856 13.6141 12.8557 13.8121L12.8472 20.3524L9.99006 21.7686V13.8132C9.99006 13.6149 9.92113 13.4227 9.79492 13.2697L4.01443 6.25836C6.04147 6.73249 8.65677 6.99301 11.4229 6.99301C14.1891 6.99301 16.8043 6.73249 18.8314 6.25836L13.0509 13.2697Z" fill="#76ED44"/>
</svg>
